{"accessors":[{"name":"15541_Scale_Flight_Deck_Crew_Landing_Signal_Officer_1_positions","componentType":5126,"count":39815,"min":[-0.8804000020027161,0.22550000250339508,0.00019999999494757503],"max":[0.7174000144004822,1.208299994468689,3.6421000957489014],"type":"VEC3","bufferView":0,"byteOffset":0},{"name":"15541_Scale_Flight_Deck_Crew_Landing_Signal_Officer_1_normals","componentType":5126,"count":39815,"min":[-1,-1,-1],"max":[1,1,1],"type":"VEC3","bufferView":0,"byteOffset":477780},{"name":"15541_Scale_Flight_Deck_Crew_Landing_Signal_Officer_1_texcoords","componentType":5126,"count":39815,"min":[-84.74400329589844,-46.58039855957031],"max":[69.60859680175781,47.3828010559082],"type":"VEC2","bufferView":1,"byteOffset":0},{"name":"15541_Scale_Flight_Deck_Crew_Landing_Signal_Officer_1_0_indices","componentType":5123,"count":236349,"min":[0],"max":[39814],"type":"SCALAR","bufferView":2,"byteOffset":0}],"asset":{"generator":"obj2gltf","version":"2.0"},"buffers":[{"name":"input","byteLength":1746780,"uri":"data:application/octet-stream;base64,"}],"bufferViews":[{"name":"bufferView_0","buffer":0,"byteLength":955560,"byteOffset":0,"byteStride":12,"target":34962},{"name":"bufferView_1","buffer":0,"byteLength":318520,"byteOffset":955560,"byteStride":8,"target":34962},{"name":"bufferView_2","buffer":0,"byteLength":472700,"byteOffset":1274080,"target":34963}],"materials":[{"name":"_15541_Scale_Flight_Deck_Crew_Landing_Signal_Officer_v101___Default","pbrMetallicRoughness":{"baseColorFactor":[0.5,0.5,0.5,1],"metallicFactor":0,"roughnessFactor":1},"emissiveFactor":[0,0,0],"alphaMode":"OPAQUE","doubleSided":false}],"meshes":[{"name":"15541_Scale_Flight_Deck_Crew_Landing_Signal_Officer_1","primitives":[{"attributes":{"POSITION":0,"NORMAL":1,"TEXCOORD_0":2},"indices":3,"material":0,"mode":4}]}],"nodes":[{"name":"15541_Scale_Flight_Deck_Crew_Landing_Signal_Officer","mesh":0}],"scene":0,"scenes":[{"nodes":[0]}]}
